<svg width="1600" height="900" viewBox="0 0 1600 900" fill="none" xmlns="http://www.w3.org/2000/svg">
  <defs>
    <linearGradient id="bg" x1="0" y1="0" x2="0" y2="1">
      <stop offset="0" stop-color="#E8F7FF"/>
      <stop offset="1" stop-color="#F8FCFF"/>
    </linearGradient>
    <linearGradient id="sky" x1="0" y1="0" x2="1" y2="1">
      <stop offset="0" stop-color="#1FA0C7"/>
      <stop offset="1" stop-color="#138BB2"/>
    </linearGradient>
  </defs>

  <rect width="1600" height="900" fill="url(#bg)"/>
  <rect x="0" y="0" width="1600" height="360" fill="url(#sky)"/>

  <circle cx="170" cy="180" r="70" fill="#F6FBFF" fill-opacity="0.2"/>
  <circle cx="1440" cy="140" r="54" fill="#F6FBFF" fill-opacity="0.2"/>

  <rect x="220" y="340" width="1160" height="460" rx="26" fill="#FFFFFF" stroke="#D9EAF5" stroke-width="4"/>

  <rect x="250" y="376" width="1110" height="26" rx="13" fill="#EEF6FC"/>
  <circle cx="274" cy="389" r="6" fill="#FF6A00"/>
  <circle cx="296" cy="389" r="6" fill="#18A6D5"/>
  <circle cx="318" cy="389" r="6" fill="#132A57"/>

  <rect x="270" y="430" width="360" height="320" rx="18" fill="#F8FBFF" stroke="#DFEAF4"/>
  <rect x="660" y="430" width="310" height="150" rx="18" fill="#F8FBFF" stroke="#DFEAF4"/>
  <rect x="660" y="600" width="310" height="150" rx="18" fill="#F8FBFF" stroke="#DFEAF4"/>
  <rect x="995" y="430" width="330" height="320" rx="18" fill="#F8FBFF" stroke="#DFEAF4"/>

  <rect x="290" y="470" width="130" height="130" rx="20" fill="#E8F5FF"/>
  <rect x="440" y="470" width="170" height="18" rx="9" fill="#C5DCEE"/>
  <rect x="440" y="500" width="150" height="14" rx="7" fill="#D8E7F4"/>
  <rect x="440" y="526" width="120" height="14" rx="7" fill="#D8E7F4"/>
  <rect x="440" y="560" width="140" height="36" rx="12" fill="#132A57"/>
  <text x="510" y="584" text-anchor="middle" font-family="Arial, sans-serif" font-size="14" font-weight="700" fill="#FFFFFF">Reservar</text>

  <rect x="290" y="620" width="320" height="110" rx="14" fill="#FFFFFF" stroke="#D9E7F2"/>
  <circle cx="325" cy="675" r="20" fill="#18A6D5"/>
  <rect x="355" y="657" width="120" height="12" rx="6" fill="#C8DDED"/>
  <rect x="355" y="678" width="90" height="10" rx="5" fill="#D8E7F4"/>
  <rect x="500" y="656" width="90" height="36" rx="10" fill="#FF6A00"/>
  <text x="545" y="679" text-anchor="middle" font-family="Arial, sans-serif" font-size="13" font-weight="700" fill="#FFFFFF">Elegir</text>

  <circle cx="720" cy="500" r="36" fill="#18A6D5"/>
  <path d="M720 480 L729 498 L748 500 L734 513 L738 532 L720 522 L702 532 L706 513 L692 500 L711 498 Z" fill="#FFFFFF"/>
  <text x="780" y="506" font-family="Arial, sans-serif" font-size="20" font-weight="700" fill="#132A57">Tasker verificado</text>

  <circle cx="720" cy="670" r="36" fill="#FF6A00"/>
  <rect x="705" y="654" width="30" height="24" rx="4" fill="#FFFFFF"/>
  <rect x="712" y="646" width="16" height="10" rx="3" fill="#FFFFFF"/>
  <text x="780" y="676" font-family="Arial, sans-serif" font-size="20" font-weight="700" fill="#132A57">Pago protegido</text>

  <rect x="1025" y="470" width="270" height="240" rx="16" fill="#FFFFFF" stroke="#D9E7F2"/>
  <circle cx="1160" cy="530" r="46" fill="#E8F5FF"/>
  <rect x="1060" y="600" width="200" height="16" rx="8" fill="#C8DDED"/>
  <rect x="1085" y="630" width="150" height="12" rx="6" fill="#D8E7F4"/>
  <rect x="1105" y="656" width="110" height="32" rx="10" fill="#132A57"/>
  <text x="1160" y="677" text-anchor="middle" font-family="Arial, sans-serif" font-size="13" font-weight="700" fill="#FFFFFF">Ver perfil</text>

  <text x="800" y="120" text-anchor="middle" font-family="Arial, sans-serif" font-size="66" font-weight="800" fill="#FFFFFF">Servicios a domicilio en un solo lugar</text>
  <text x="800" y="176" text-anchor="middle" font-family="Arial, sans-serif" font-size="30" font-weight="600" fill="#E8F8FF">Busca, compara y reserva profesionales verificados</text>
</svg>
