<svg width="1600" height="900" viewBox="0 0 1600 900" fill="none" xmlns="http://www.w3.org/2000/svg">
  <defs>
    <linearGradient id="sky" x1="0" y1="0" x2="0" y2="1">
      <stop offset="0" stop-color="#0D9CC4"/>
      <stop offset="1" stop-color="#46C1D9"/>
    </linearGradient>
    <linearGradient id="ground" x1="0" y1="0" x2="0" y2="1">
      <stop offset="0" stop-color="#D8E8C8"/>
      <stop offset="1" stop-color="#BFD6A6"/>
    </linearGradient>
    <filter id="shadow" x="-20%" y="-20%" width="140%" height="140%">
      <feDropShadow dx="0" dy="10" stdDeviation="10" flood-color="#153A5A" flood-opacity="0.15"/>
    </filter>
  </defs>

  <rect width="1600" height="900" fill="#EAF7FF"/>
  <rect width="1600" height="520" fill="url(#sky)"/>
  <rect y="740" width="1600" height="160" fill="url(#ground)"/>

  <g opacity="0.42">
    <ellipse cx="260" cy="470" rx="160" ry="80" fill="#6D8FA6"/>
    <ellipse cx="520" cy="450" rx="140" ry="70" fill="#698AA1"/>
    <ellipse cx="1340" cy="470" rx="180" ry="85" fill="#6B8DA4"/>
  </g>

  <g opacity="0.86">
    <ellipse cx="200" cy="500" rx="140" ry="42" fill="#3F6F65"/>
    <ellipse cx="380" cy="505" rx="170" ry="46" fill="#3A695F"/>
    <ellipse cx="620" cy="498" rx="170" ry="44" fill="#3D6E64"/>
    <ellipse cx="860" cy="506" rx="190" ry="48" fill="#376459"/>
    <ellipse cx="1140" cy="502" rx="180" ry="46" fill="#3E6D63"/>
    <ellipse cx="1390" cy="506" rx="160" ry="42" fill="#3A675E"/>
  </g>

  <g opacity="0.95">
    <path d="M75 500L135 340L195 500H75Z" fill="#507B66"/>
    <path d="M1320 500L1380 330L1440 500H1320Z" fill="#4F7965"/>
    <rect x="130" y="500" width="10" height="80" fill="#5E7E67"/>
    <rect x="1375" y="500" width="10" height="85" fill="#5E7E67"/>
  </g>

  <g filter="url(#shadow)">
    <rect x="270" y="380" width="1060" height="410" rx="18" fill="#FFFFFF" stroke="#DCE8F2" stroke-width="4"/>
  </g>
  <rect x="270" y="382" width="1060" height="42" rx="14" fill="#F2F7FC"/>

  <path d="M270 380L800 280L1330 380" fill="#F8FCFF" stroke="#DCE8F2" stroke-width="4"/>

  <path d="M620 424V790" stroke="#E0EAF3" stroke-width="3"/>
  <path d="M980 424V790" stroke="#E0EAF3" stroke-width="3"/>

  <rect x="300" y="436" width="300" height="330" rx="12" fill="#FAFDFF"/>
  <rect x="330" y="456" width="120" height="80" rx="10" fill="#EAF4FB"/>
  <rect x="468" y="470" width="102" height="12" rx="6" fill="#C2D5E6"/>
  <rect x="468" y="492" width="90" height="10" rx="5" fill="#D3E2EF"/>
  <rect x="320" y="700" width="260" height="56" rx="10" fill="#EEF5FB"/>
  <circle cx="390" cy="620" r="28" fill="#FFD9B8"/>
  <rect x="368" y="647" width="44" height="74" rx="14" fill="#2AA8D4"/>
  <rect x="355" y="670" width="13" height="56" rx="6" fill="#2AA8D4"/>
  <rect x="412" y="670" width="13" height="56" rx="6" fill="#2AA8D4"/>
  <rect x="438" y="676" width="88" height="8" rx="4" fill="#87A6C0"/>
  <rect x="523" y="666" width="9" height="63" rx="4" fill="#87A6C0"/>
  <circle cx="527" cy="663" r="11" fill="#FF7B1D"/>

  <rect x="650" y="436" width="310" height="330" rx="12" fill="#FAFDFF"/>
  <rect x="680" y="500" width="250" height="226" rx="12" fill="#F1F7FC"/>
  <rect x="706" y="542" width="198" height="22" rx="9" fill="#CBDEEE"/>
  <rect x="706" y="576" width="162" height="16" rx="8" fill="#D7E5F1"/>
  <rect x="736" y="616" width="150" height="88" rx="10" fill="#E2EDF7"/>
  <circle cx="740" cy="654" r="24" fill="#FFD9B8"/>
  <rect x="722" y="678" width="36" height="58" rx="12" fill="#FF7B1D"/>
  <rect x="770" y="644" width="10" height="60" rx="5" fill="#6B8AA4"/>
  <rect x="774" y="636" width="74" height="10" rx="5" fill="#6B8AA4"/>
  <circle cx="850" cy="642" r="10" fill="#2DB8CF"/>
  <circle cx="850" cy="642" r="4" fill="#FFFFFF"/>
  <path d="M865 642C885 642 885 676 865 676" stroke="#2DB8CF" stroke-width="6" stroke-linecap="round"/>

  <rect x="1010" y="436" width="290" height="330" rx="12" fill="#FAFDFF"/>
  <rect x="1035" y="470" width="240" height="220" rx="12" fill="#F1F7FC"/>
  <rect x="1052" y="490" width="204" height="160" rx="10" fill="#E2EDF7"/>
  <path d="M1068 526H1238" stroke="#9CB8CE" stroke-width="4"/>
  <path d="M1068 552H1212" stroke="#B3C9DA" stroke-width="4"/>
  <path d="M1068 578H1178" stroke="#C4D6E4" stroke-width="4"/>
  <circle cx="1088" cy="706" r="22" fill="#FFD9B8"/>
  <rect x="1072" y="728" width="32" height="50" rx="10" fill="#1B3D60"/>
  <circle cx="1208" cy="716" r="20" fill="#FFD9B8"/>
  <rect x="1193" y="735" width="28" height="44" rx="9" fill="#2AA8D4"/>
  <rect x="1112" y="704" width="74" height="7" rx="3" fill="#7C99B3"/>
</svg>
