<svg width="1400" height="900" viewBox="0 0 1400 900" fill="none" xmlns="http://www.w3.org/2000/svg">
  <g>
    <rect x="120" y="220" width="1160" height="620" rx="28" fill="#F8FBFF" stroke="#D5E5F2" stroke-width="4"/>
    <rect x="120" y="220" width="1160" height="120" rx="28" fill="#EAF4FB"/>
    <path d="M120 340H1280" stroke="#D5E5F2" stroke-width="4"/>

    <path d="M120 220L700 80L1280 220" stroke="#C5DBED" stroke-width="8" fill="#EDF6FC"/>

    <path d="M510 340V840" stroke="#D5E5F2" stroke-width="4"/>
    <path d="M890 340V840" stroke="#D5E5F2" stroke-width="4"/>

    <rect x="150" y="370" width="330" height="430" rx="18" fill="#FFFFFF"/>
    <rect x="170" y="710" width="290" height="70" rx="10" fill="#EEF5FB"/>
    <rect x="180" y="395" width="120" height="80" rx="10" fill="#EAF4FC"/>
    <rect x="320" y="420" width="130" height="12" rx="6" fill="#C3D9EA"/>
    <rect x="320" y="444" width="100" height="10" rx="5" fill="#D5E4F1"/>

    <circle cx="250" cy="590" r="36" fill="#FFD7B0"/>
    <rect x="222" y="626" width="56" height="86" rx="18" fill="#18A6D5"/>
    <rect x="206" y="650" width="16" height="70" rx="8" fill="#18A6D5"/>
    <rect x="278" y="650" width="16" height="70" rx="8" fill="#18A6D5"/>
    <rect x="196" y="710" width="28" height="14" rx="6" fill="#132A57"/>
    <rect x="276" y="710" width="28" height="14" rx="6" fill="#132A57"/>
    <rect x="300" y="670" width="90" height="10" rx="5" fill="#8AA8BF"/>
    <rect x="388" y="658" width="10" height="58" rx="5" fill="#8AA8BF"/>
    <circle cx="392" cy="655" r="12" fill="#FF6A00"/>

    <text x="168" y="770" font-family="Arial, sans-serif" font-size="28" font-weight="700" fill="#16395C">Limpieza</text>

    <rect x="540" y="370" width="330" height="430" rx="18" fill="#FFFFFF"/>
    <rect x="560" y="470" width="290" height="260" rx="14" fill="#F3F8FD"/>
    <rect x="590" y="520" width="230" height="26" rx="10" fill="#DDEAF5"/>
    <rect x="620" y="555" width="170" height="18" rx="9" fill="#C8DDED"/>
    <rect x="610" y="590" width="190" height="120" rx="12" fill="#E2EEF8"/>

    <circle cx="650" cy="620" r="30" fill="#FFD7B0"/>
    <rect x="625" y="650" width="50" height="76" rx="16" fill="#FF6A00"/>
    <rect x="610" y="675" width="14" height="54" rx="7" fill="#FF6A00"/>
    <rect x="676" y="675" width="14" height="54" rx="7" fill="#FF6A00"/>

    <rect x="735" y="610" width="12" height="72" rx="6" fill="#6F8EA9"/>
    <rect x="740" y="600" width="78" height="12" rx="6" fill="#6F8EA9"/>
    <circle cx="822" cy="606" r="10" fill="#39B8D3"/>
    <circle cx="822" cy="606" r="5" fill="#FFFFFF"/>
    <path d="M835 606C853 606 853 640 835 640" stroke="#39B8D3" stroke-width="6" stroke-linecap="round"/>

    <text x="558" y="770" font-family="Arial, sans-serif" font-size="28" font-weight="700" fill="#16395C">Gasfiter</text>

    <rect x="920" y="370" width="330" height="430" rx="18" fill="#FFFFFF"/>
    <rect x="940" y="430" width="290" height="180" rx="14" fill="#F3F8FD"/>
    <rect x="960" y="450" width="250" height="130" rx="12" fill="#E4EEF8"/>
    <path d="M975 475H1195" stroke="#98B5CD" stroke-width="4"/>
    <path d="M975 505H1160" stroke="#B2C8DA" stroke-width="4"/>
    <path d="M975 535H1120" stroke="#BFD2E1" stroke-width="4"/>

    <circle cx="990" cy="660" r="28" fill="#FFD7B0"/>
    <rect x="968" y="688" width="44" height="68" rx="14" fill="#132A57"/>
    <circle cx="1125" cy="680" r="26" fill="#FFD7B0"/>
    <rect x="1106" y="706" width="38" height="58" rx="12" fill="#18A6D5"/>
    <rect x="1018" y="658" width="86" height="8" rx="4" fill="#7A97B1"/>

    <text x="938" y="770" font-family="Arial, sans-serif" font-size="28" font-weight="700" fill="#16395C">Clases</text>
  </g>
</svg>
