<svg xmlns="http://www.w3.org/2000/svg" viewBox="0 0 2100 1400" role="img" aria-labelledby="title desc">
  <title id="title">Chef a domicilio</title>
  <desc id="desc">Ilustracion horizontal para servicio de chef a domicilio.</desc>
  <defs>
    <linearGradient id="bg" x1="0" y1="0" x2="1" y2="1">
      <stop offset="0%" stop-color="#f4efe6" />
      <stop offset="100%" stop-color="#e8ddd0" />
    </linearGradient>
    <linearGradient id="panel" x1="0" y1="0" x2="0" y2="1">
      <stop offset="0%" stop-color="#fefcfa" />
      <stop offset="100%" stop-color="#f4ede4" />
    </linearGradient>
  </defs>
  <rect width="2100" height="1400" fill="url(#bg)" />
  <rect x="120" y="220" width="1860" height="980" rx="42" fill="url(#panel)" stroke="#d7c7b1" stroke-width="8" />
  <circle cx="620" cy="700" r="240" fill="#ffffff" stroke="#d8c8b3" stroke-width="10" />
  <rect x="510" y="570" width="220" height="190" rx="30" fill="#ffffff" stroke="#d8c8b3" stroke-width="10" />
  <circle cx="560" cy="540" r="72" fill="#ffffff" stroke="#d8c8b3" stroke-width="10" />
  <circle cx="620" cy="510" r="84" fill="#ffffff" stroke="#d8c8b3" stroke-width="10" />
  <circle cx="685" cy="545" r="68" fill="#ffffff" stroke="#d8c8b3" stroke-width="10" />
  <path d="M512 760c32 74 98 128 176 146 77-18 143-72 175-146" fill="none" stroke="#1f3552" stroke-width="20" stroke-linecap="round" />
  <rect x="980" y="540" width="870" height="300" rx="24" fill="#ffffff" stroke="#d7c7b1" stroke-width="8" />
  <text x="1030" y="660" fill="#1f3552" font-size="96" font-family="Avenir Next, Segoe UI, Arial, sans-serif" font-weight="700">CHEF A DOMICILIO</text>
  <text x="1030" y="750" fill="#4a627c" font-size="48" font-family="Avenir Next, Segoe UI, Arial, sans-serif">Menus personalizados y cocina en casa</text>
  <circle cx="1660" cy="1080" r="74" fill="#d36235" />
  <circle cx="1760" cy="1080" r="74" fill="#3f7f5f" />
  <circle cx="1860" cy="1080" r="74" fill="#d8aa3c" />
</svg>
